<svg xmlns="http://www.w3.org/2000/svg" viewBox="0 0 24 24" fill="none">
  <path d="M12 2L2 7v10c0 5.55 3.84 10.74 9 12l5-3.09V12c-3.87-1.26-7-3.96-7-8 0-1.04 3.13-6.74 7-8l-5-3.09C5.84 22.74 2 17.55 2 12V7l10-5z" fill="#3B82F6"/>
  <path d="M12 2L22 7v10c0 5.55-3.84 10.74-9 12l-5-3.09V12c3.87-1.26 7-3.96 7-8 0-1.04-3.13-6.74-7-8l5-3.09C18.16 22.74 22 17.55 22 12V7l-10-5z" fill="#1E40AF"/>
  <path d="M12 7v5l4 2.5V7l-4-2.5z" fill="#60A5FA"/>
  <path d="M2 7l10 5v10L2 17V7z" fill="#2563EB"/>
</svg>
